# xmcd
#
# Track frame offsets:
#	150
#	17440
#	34712
#	54882
#	72022
#	85737
#	103637
#	123690
#	141270
#	154680
#
# Disc length: 2315 seconds
#
# Revision: 0
# Processed by: cddbd v1.5.2PL0 Copyright (c) Steve Scherf et al.
# Submitted via: audiograbber 1.83.01
#
DISCID=7709090a
DTITLE=Alan Jackson - High Mileage
DYEAR=1998
DGENRE=Country
TTITLE0=Right On The Money
TTITLE1=Gone Crazy
TTITLE2=Little Man
TTITLE3=What A Day Yesterday Was
TTITLE4=Hurtin' Comes Easy
TTITLE5=I'll Go On Lovin' You
TTITLE6=Another Good Reason
TTITLE7=A Woman's Love
TTITLE8=Dancin' All Around It
TTITLE9=Amarillo
EXTD=
EXTT0=
EXTT1=
EXTT2=
EXTT3=
EXTT4=
EXTT5=
EXTT6=
EXTT7=
EXTT8=
EXTT9=
PLAYORDER=
